<?xml version="1.0" encoding="utf-8"?>
<!-- Generator: Adobe Illustrator 23.0.1, SVG Export Plug-In . SVG Version: 6.00 Build 0)  -->
<svg version="1.1" id="Layer_1" xmlns="http://www.w3.org/2000/svg" xmlns:xlink="http://www.w3.org/1999/xlink" x="0px" y="0px"
	 viewBox="0 0 512 512" style="enable-background:new 0 0 512 512;" xml:space="preserve">
<style type="text/css">
	.st0{fill:#63BCE7;}
	.st1{fill:#FFFFFF;}
	.st2{fill:#FFB74B;}
	.st3{fill:#F87023;}
	.st4{fill:#F8D323;}
	.st5{fill:#6377E7;}
	.st6{fill:#67DCEB;}
	.st7{fill:#67BEEB;}
	.st8{fill:#3F3679;}
</style>
<g>
	<path class="st0" d="M451.8,462.7H350.4v-64.5h101.4V462.7z"/>
	<path class="st1" d="M460.9,398.2H341.4v-29.6h119.5V398.2z"/>
	<path class="st2" d="M414.6,231.2c8.3-8.3,21.7-8.5,30.2-0.4l0.1-0.1v-56.1c0-12,9.7-21.7,21.7-21.7s21.7,9.7,21.7,21.7v128.5
		c0,1.6-0.6,3.1-1.7,4.2l-42.8,43.4c-1.1,1.1-1.7,2.6-1.7,4.2v13.7h-82.1v-80.4c0-1.6,0.6-3.1,1.8-4.2L414.6,231.2z"/>
	<path class="st2" d="M97.4,231.2c-8.3-8.3-21.7-8.5-30.2-0.4l-0.1-0.1v-56.1c0-12-9.7-21.7-21.7-21.7s-21.7,9.7-21.7,21.7v128.5
		c0,1.6,0.6,3.1,1.7,4.2l42.8,43.4c1.1,1.1,1.7,2.6,1.7,4.2v13.7h82.1v-80.4c0-1.6-0.6-3.1-1.8-4.2L97.4,231.2z"/>
	<g>
		<path class="st3" d="M89.4,350.6l-42.8-43.4c-1.1-1.1-1.7-2.6-1.7-4.2V174.5c0-8.1,4.5-15.2,11-18.9c-3.2-1.8-6.8-2.8-10.7-2.8
			c-12,0-21.7,9.7-21.7,21.7v128.5c0,1.6,0.6,3.1,1.7,4.2l42.8,43.4c1.1,1.1,1.7,2.6,1.7,4.2v13.7h21.3v-13.7
			C91.2,353.3,90.6,351.8,89.4,350.6L89.4,350.6z"/>
	</g>
	<g>
		<path class="st4" d="M422.6,350.6l42.8-43.4c1.1-1.1,1.7-2.6,1.7-4.2V174.5c0-8.1-4.5-15.2-11-18.9c3.2-1.8,6.8-2.8,10.7-2.8
			c12,0,21.7,9.7,21.7,21.7v128.5c0,1.6-0.6,3.1-1.7,4.2l-42.8,43.4c-1.1,1.1-1.7,2.6-1.7,4.2v13.7h-21.3v-13.7
			C420.8,353.3,421.4,351.8,422.6,350.6L422.6,350.6z"/>
	</g>
	<path class="st1" d="M51.1,368.6h119.5v29.6H51.1V368.6z"/>
	<g>
		<path class="st1" d="M51.1,368.6h21.3v29.6H51.1V368.6z"/>
	</g>
	<g>
		<path class="st1" d="M439.5,368.6h21.3v29.6h-21.3V368.6z"/>
	</g>
	<path class="st0" d="M60.2,398.2h101.4v64.5H60.2V398.2z"/>
	<g>
		<path class="st5" d="M60.2,398.2h21.3v64.5H60.2V398.2z"/>
	</g>
	<g>
		<path class="st6" d="M430.5,398.2h21.3v64.5h-21.3L430.5,398.2z"/>
	</g>
	<path class="st2" d="M326.1,25.8H185.9c-6.6,0-12,5.4-12,12v30.6v21V238h164.3V37.8C338.2,31.2,332.7,25.8,326.1,25.8z"/>
	<g>
		<path class="st2" d="M195.2,68.4V37.8c0-6.6,5.4-12,12-12h-21.3c-6.6,0-12,5.4-12,12v30.6v21V238h21.3V89.5L195.2,68.4L195.2,68.4
			z"/>
	</g>
	<g>
		<path class="st2" d="M316.8,68.4V37.8c0-6.6-5.4-12-12-12h21.3c6.6,0,12,5.4,12,12v30.6v21V238h-21.3V89.5L316.8,68.4z"/>
	</g>
	<path class="st7" d="M173.8,238v38.5c0,6.6,5.4,12,12,12h95.5h21h23.7c6.6,0,12-5.4,12-12V238L173.8,238z"/>
	<g>
		<path class="st5" d="M195.2,276.4V238h-21.3v38.5c0,6.6,5.4,12,12,12h21.3C200.6,288.5,195.2,283,195.2,276.4z"/>
	</g>
	<g>
		<path class="st6" d="M316.8,276.4V238h21.3v38.5c0,6.6-5.4,12-12,12h-21.3C311.4,288.5,316.8,283,316.8,276.4z"/>
	</g>
	<circle class="st2" cx="256" cy="263.4" r="8.1"/>
	<g>
		<circle class="st2" cx="91.5" cy="64.4" r="11.3"/>
		<circle class="st2" cx="91.5" cy="152.6" r="11.3"/>
		<circle class="st2" cx="40.5" cy="108.5" r="11.3"/>
		<circle class="st2" cx="420.5" cy="64.4" r="11.3"/>
		<circle class="st2" cx="420.5" cy="152.6" r="11.3"/>
		<circle class="st2" cx="471.5" cy="108.5" r="11.3"/>
	</g>
	<path class="st8" d="M127.9,386.4h18.7c1.7,0,3-1.3,3-3s-1.3-3-3-3h-18.8c-1.7,0-3,1.3-3,3S126.2,386.4,127.9,386.4z"/>
	<path class="st8" d="M365.3,386.4h18.8c1.7,0,3-1.3,3-3s-1.3-3-3-3h-18.8c-1.7,0-3,1.3-3,3S363.7,386.4,365.3,386.4z"/>
	<path class="st8" d="M256,274.5c6.1,0,11.1-5,11.1-11.1s-5-11.1-11.1-11.1c-6.1,0-11.1,5-11.1,11.1S249.9,274.5,256,274.5
		L256,274.5z M256,258.3c2.8,0,5.1,2.3,5.1,5.1s-2.3,5.1-5.1,5.1c-2.8,0-5.1-2.3-5.1-5.1S253.2,258.3,256,258.3L256,258.3z"/>
	<path class="st8" d="M278.4,49.7h13c1.7,0,3-1.3,3-3s-1.3-3-3-3h-13c-1.7,0-3,1.3-3,3S276.7,49.7,278.4,49.7z"/>
	<path class="st8" d="M283.3,68.3l-30.6,16.1h-25.6c-1.2,0-2.1,1-2.1,2.1v5.3h-5c-1.2,0-2.1,1-2.1,2.1v14.9c0,1.2,1,2.1,2.1,2.1h5
		v5.3c0,1.2,1,2.1,2.1,2.1h5.2v17.8c0,1.2,1,2.1,2.1,2.1H246c1.2,0,2.1-1,2.1-2.1v-17.8h4.6l30.6,16v0c0.3,0.2,0.6,0.3,1,0.3h7.8
		c1.2,0,2.1-1,2.1-2.1V70.2c0-1.2-1-2.1-2.1-2.1h-7.8C284,68.1,283.6,68.2,283.3,68.3L283.3,68.3L283.3,68.3z M286.5,72.4h3.5v58.2
		h-3.5V72.4z M222.1,106.8V96.1h2.9v10.6H222.1z M229.3,108.9V94v-5.3h21.8v25.6H246h-11.5h-5.2V108.9z M243.8,134.2h-7.2v-15.7h7.2
		V134.2z M255.4,87.8l26.8-14v55.3l-26.8-14V87.8z"/>
	<path class="st8" d="M40.5,122.8c6.8,0,12.5-4.8,13.9-11.3h116.4v10.1h-32.3c-1.7,0-3,1.3-3,3v25h-30.1
		c-1.4-6.4-7.1-11.3-13.9-11.3c-7.9,0-14.3,6.4-14.3,14.3s6.4,14.3,14.3,14.3c6.8,0,12.5-4.8,13.9-11.3h33.1c1.7,0,3-1.3,3-3v-25
		h29.3V238v38.5c0,8.3,6.7,15,15,15h140.3c8.3,0,15-6.7,15-15V238V127.6h29.3v25c0,1.7,1.3,3,3,3h33.1c1.4,6.4,7.1,11.3,13.9,11.3
		c7.9,0,14.3-6.4,14.3-14.3s-6.4-14.3-14.3-14.3c-6.8,0-12.5,4.8-13.9,11.3h-30.1v-25c0-1.7-1.3-3-3-3h-32.3v-10.1h116.4
		c1.4,6.4,7.1,11.3,13.9,11.3c7.9,0,14.3-6.4,14.3-14.3s-6.4-14.3-14.3-14.3c-6.8,0-12.5,4.8-13.9,11.3H341.2V95.4h32.3
		c1.7,0,3-1.3,3-3v-25h30.1c1.4,6.4,7.1,11.3,13.9,11.3c7.9,0,14.3-6.4,14.3-14.3s-6.4-14.3-14.3-14.3c-6.8,0-12.5,4.8-13.9,11.3
		h-33.1c-1.7,0-3,1.3-3,3v25h-29.3V37.8c0-8.3-6.7-15-15-15H185.9c-8.3,0-15,6.7-15,15v51.6h-29.3v-25c0-1.7-1.3-3-3-3h-33.1
		C104,55,98.3,50.2,91.5,50.2c-7.9,0-14.3,6.4-14.3,14.3s6.4,14.3,14.3,14.3c6.8,0,12.5-4.8,13.9-11.3h30.1v25c0,1.7,1.3,3,3,3h32.3
		v10.1H54.4c-1.4-6.4-7.1-11.3-13.9-11.3c-7.9,0-14.3,6.4-14.3,14.3S32.6,122.8,40.5,122.8z M91.5,160.9c-4.5,0-8.3-3.7-8.3-8.3
		s3.7-8.3,8.3-8.3s8.3,3.7,8.3,8.3S96,160.9,91.5,160.9z M420.5,144.4c4.5,0,8.3,3.7,8.3,8.3s-3.7,8.3-8.3,8.3s-8.3-3.7-8.3-8.3
		S416,144.4,420.5,144.4z M471.5,100.3c4.5,0,8.3,3.7,8.3,8.3s-3.7,8.3-8.3,8.3s-8.3-3.7-8.3-8.3S467,100.3,471.5,100.3z
		 M420.5,56.2c4.5,0,8.3,3.7,8.3,8.3s-3.7,8.3-8.3,8.3s-8.3-3.7-8.3-8.3S416,56.2,420.5,56.2z M91.5,72.7c-4.5,0-8.3-3.7-8.3-8.3
		s3.7-8.3,8.3-8.3s8.3,3.7,8.3,8.3S96,72.7,91.5,72.7z M335.2,276.4c0,5-4,9-9,9H185.9c-5,0-9-4-9-9V241h158.3V276.4z M185.9,28.8
		h140.3c5,0,9,4,9,9V235H176.8V49.7h83.8c1.7,0,3-1.3,3-3s-1.3-3-3-3h-83.8v-5.9C176.8,32.8,180.9,28.8,185.9,28.8L185.9,28.8z
		 M40.5,100.3c4.5,0,8.3,3.7,8.3,8.3s-3.7,8.3-8.3,8.3s-8.3-3.7-8.3-8.3S35.9,100.3,40.5,100.3z"/>
	<path class="st8" d="M51.8,483.2h-37c-1.7,0-3,1.3-3,3s1.3,3,3,3h37c1.7,0,3-1.3,3-3S53.4,483.2,51.8,483.2z"/>
	<path class="st8" d="M497.2,483.2h-37c-1.7,0-3,1.3-3,3s1.3,3,3,3h37c1.7,0,3-1.3,3-3S498.9,483.2,497.2,483.2z"/>
	<path class="st8" d="M430.7,483.2H81.3c-1.7,0-3,1.3-3,3s1.3,3,3,3h349.3c1.7,0,3-1.3,3-3S432.3,483.2,430.7,483.2z"/>
	<path class="st8" d="M14.8,465.7h15.9c1.7,0,3-1.3,3-3s-1.3-3-3-3H14.8c-1.7,0-3,1.3-3,3S13.1,465.7,14.8,465.7z"/>
	<path class="st8" d="M478.3,462.7c0,1.7,1.3,3,3,3h15.9c1.7,0,3-1.3,3-3s-1.3-3-3-3h-15.9C479.7,459.7,478.3,461,478.3,462.7z"/>
	<path class="st8" d="M463.2,462.7c0-1.7-1.3-3-3-3h-5.4v-58.5h6.1c1.7,0,3-1.3,3-3v-29.6c0-1.7-1.3-3-3-3h-15.7v-10.7
		c0-0.8,0.3-1.5,0.9-2.1l42.8-43.4c1.7-1.7,2.6-3.9,2.6-6.3V174.5c0-13.6-11.1-24.7-24.7-24.7S442,160.9,442,174.5v50.4
		c-9.4-5.3-21.5-3.9-29.5,4.1l-52.8,52.8c-1.7,1.7-2.6,4-2.6,6.4v77.4h-15.7c-1.7,0-3,1.3-3,3v29.6c0,1.7,1.3,3,3,3h6.1v58.5H164.6
		v-58.5h6.1c1.7,0,3-1.3,3-3v-29.6c0-1.7-1.3-3-3-3h-15.7v-77.4c0-2.4-0.9-4.7-2.6-6.4L99.5,229c-8-8-20.1-9.4-29.5-4.1v-50.4
		c0-13.6-11.1-24.7-24.7-24.7s-24.7,11.1-24.7,24.7v128.5c0,2.4,0.9,4.6,2.6,6.3L66,352.7c0.6,0.6,0.9,1.3,0.9,2.1v10.7H51.1
		c-1.7,0-3,1.3-3,3v29.6c0,1.7,1.3,3,3,3h6.1v58.5h-5.4c-1.7,0-3,1.3-3,3s1.3,3,3,3h8.4h101.4h188.8h101.4h8.4
		C461.9,465.7,463.2,464.3,463.2,462.7L463.2,462.7z M363.1,288.2c0-0.8,0.3-1.6,0.9-2.1l52.8-52.8c7.2-7.2,18.6-7.4,26-0.4
		c3.5,3.5,5.6,8.4,5.7,13.4c0.1,5.1-1.8,9.9-5.3,13.4l-39.8,39.8c-1.2,1.2-1.2,3.1,0,4.2c0.6,0.6,1.4,0.9,2.1,0.9s1.5-0.3,2.1-0.9
		l39.8-39.8c9.1-9.1,9.2-24.4,0.6-34.2v-55.3c0-10.3,8.4-18.7,18.7-18.7s18.7,8.4,18.7,18.7v128.5c0,0.8-0.3,1.5-0.9,2.1l-42.8,43.4
		c-1.7,1.7-2.6,3.9-2.6,6.3v10.7h-76.1L363.1,288.2L363.1,288.2z M344.4,371.6h15.7h82.1h15.7v8.8h-54.8c-1.7,0-3,1.3-3,3s1.3,3,3,3
		h54.8v8.8h-6.1H350.4h-6.1L344.4,371.6L344.4,371.6z M70.2,348.5l-42.8-43.4c-0.6-0.6-0.9-1.3-0.9-2.1V174.5
		c0-10.3,8.4-18.7,18.7-18.7S64,164.2,64,174.5v55.2c-9,9.7-8.8,24.9,0.6,34.3l39.8,39.8c0.6,0.6,1.4,0.9,2.1,0.9s1.5-0.3,2.1-0.9
		c1.2-1.2,1.2-3.1,0-4.2l-39.8-39.8c-3.5-3.5-5.5-8.2-5.5-13.2c0-5,1.9-9.7,5.4-13.1c0,0,0.5-0.4,0.5-0.4c7.4-7,18.9-6.9,26.1,0.3
		l52.8,52.8c0.6,0.6,0.9,1.3,0.9,2.1v77.4H72.8v-10.7C72.8,352.5,71.9,350.2,70.2,348.5L70.2,348.5z M54.1,386.4h54.8
		c1.7,0,3-1.3,3-3s-1.3-3-3-3H54.1v-8.8h15.7h82.1h15.7v23.6h-6.1H60.2h-6.1L54.1,386.4z M63.2,459.7v-42.1h74.1c1.7,0,3-1.3,3-3
		s-1.3-3-3-3H63.2v-10.4h95.4v58.5H63.2z M353.4,459.7v-58.5h95.4v10.4h-74.1c-1.7,0-3,1.3-3,3s1.3,3,3,3h74.1v42.1H353.4z"/>
	<g>
		<path class="st1" d="M233.4,192.6c0-2.8,0.5-5.4,1.6-8c0.8-2,2-3.9,3.4-5.6c1.7-2,3.7-3.6,6-4.9c1.9-1,3.9-1.8,6.1-2.2
			c0.8-0.1,1.5-0.3,2.3-0.3c0.7-0.1,1.4-0.1,2.1-0.1c0.1,0,0.3,0,0.4,0c0.1,0,0.2,0,0.4,0c0.6-0.1,1.2,0,1.8,0
			c0.4,0,0.9,0.1,1.3,0.1c1.1,0.1,2.2,0.3,3.3,0.6c1.4,0.4,2.7,0.9,3.9,1.5c1.5,0.8,2.9,1.7,4.2,2.8c1.5,1.3,2.9,2.8,4,4.5
			c1.7,2.5,2.7,5.3,3.2,8.3c0.1,0.7,0.2,1.5,0.2,2.3c0,0.5,0,1,0,1.5c0,1.4-0.2,2.7-0.5,4.1c-0.4,1.8-1,3.5-1.9,5.2
			c-0.7,1.4-1.6,2.8-2.7,4c-0.5,0.6-1.1,1.2-1.7,1.8c-1.2,1.1-2.5,2.1-3.9,2.9c-1.8,1-3.7,1.8-5.7,2.2c-1,0.2-2,0.4-3,0.5
			c-0.7,0.1-1.4,0.1-2.1,0.1c-0.1,0-0.3,0-0.4,0c-0.1,0-0.3,0-0.4,0c-0.6,0.1-1.1,0.1-1.7,0c-0.3,0-0.6,0-0.9,0
			c-1-0.1-1.9-0.2-2.9-0.4c-1.8-0.4-3.6-1-5.2-1.9c-1.3-0.7-2.6-1.6-3.8-2.5c-0.5-0.4-0.9-0.8-1.3-1.2c-1.4-1.4-2.5-2.9-3.5-4.5
			c-0.9-1.7-1.7-3.4-2.1-5.3c-0.3-1.1-0.4-2.1-0.5-3.2C233.5,193.9,233.4,193.2,233.4,192.6z M275.5,192.7c0-0.6,0-1.1,0-1.6
			c-0.1-0.8-0.2-1.6-0.3-2.4c-0.5-2.8-1.6-5.3-3.1-7.7c-0.6-0.9-1.2-1.7-1.9-2.4c-0.7-0.8-1.5-1.5-2.3-2.2c-1-0.9-2.1-1.6-3.3-2.2
			c-1.4-0.8-2.9-1.4-4.5-1.8c-1.1-0.3-2.2-0.5-3.3-0.6c-0.7-0.1-1.3-0.1-2,0c-1,0.1-2.1,0.3-3.1,0.5c-1.9,0.5-3.7,1.2-5.4,2.1
			c-1.6,0.9-3,2-4.3,3.2c-0.5,0.5-1,1.1-1.5,1.6c-0.9,1.1-1.8,2.3-2.5,3.6c-0.9,1.7-1.6,3.5-2,5.4c-0.3,1.4-0.5,2.8-0.5,4.3
			c0,0.4,0,0.8,0,1.1c0,0.6,0.1,1.1,0.1,1.7c0.2,1.4,0.5,2.7,0.9,4c0.4,1.3,1,2.5,1.6,3.7c0.9,1.6,2,3,3.2,4.3
			c0.6,0.6,1.2,1.2,1.9,1.7c1.4,1.2,3,2.1,4.7,2.9c1.5,0.6,3,1.1,4.5,1.4c0.8,0.2,1.7,0.3,2.6,0.3c0.6,0,1.1,0,1.7-0.1
			c1-0.1,2-0.3,2.9-0.5c1.7-0.4,3.4-1.1,4.9-2c1.4-0.8,2.8-1.8,4-2.9c0.8-0.7,1.5-1.4,2.1-2.2c1.2-1.5,2.3-3.2,3-5
			C274.9,198.2,275.5,195.5,275.5,192.7z"/>
		<path class="st1" d="M262.2,190.5c0-0.1,0.1-0.2,0.1-0.3c0.3-0.6,0.7-1.1,1.2-1.5c0.5-0.3,1-0.6,1.6-0.7c0.7-0.1,1.5-0.1,2.2,0
			c1,0.2,1.8,0.8,2.3,1.7c0.1,0.2,0.2,0.5,0.3,0.7c0.1,0.3,0.2,0.7,0.2,1.1c0,0.1,0,0.1-0.1,0.1c-0.1,0-0.3,0-0.4,0
			c-0.6,0-1.1,0-1.7,0.1c-0.1,0-0.2,0-0.3,0c-0.2,0-0.2,0-0.2-0.2c0-0.1-0.1-0.2-0.1-0.3c-0.1-0.3-0.2-0.5-0.4-0.6
			c-0.3-0.3-1.1-0.3-1.5,0.1c-0.2,0.2-0.3,0.4-0.4,0.6c-0.1,0.2-0.1,0.5-0.2,0.7c0,0.7-0.1,1.3,0.1,2c0.1,0.3,0.2,0.6,0.5,0.9
			c0.6,0.4,1.4,0.2,1.8-0.4c0.1-0.3,0.2-0.6,0.3-0.9c0.1-0.3,0.1-0.3,0.4-0.2c0.7,0.1,1.4,0.2,2.2,0.4c0.2,0,0.2,0,0.2,0.3
			c-0.1,1.3-0.6,2.3-1.6,3.1c-0.5,0.4-1.1,0.5-1.7,0.6c-0.7,0.1-1.4,0-2-0.1c-1-0.2-1.7-0.7-2.2-1.5c-0.2-0.3-0.4-0.6-0.5-0.9
			c0,0.1,0,0.1,0,0.2c0,0.6,0,1.3,0,1.9c0,0.1,0,0.1,0,0.2c0,0.1-0.1,0.1-0.1,0.1c-0.1,0-0.1,0-0.2,0c-0.7,0-1.3,0-2,0
			c-0.1,0-0.1,0-0.2,0c-0.1,0-0.1,0-0.1-0.1c0-0.1,0-0.2,0-0.2c0-1.4,0-2.8,0-4.1c0-0.1,0-0.2,0-0.3c-0.1,0.1-0.1,0.1-0.1,0.2
			c-0.3,1.5-0.7,2.9-1,4.4c-0.1,0.2-0.1,0.2-0.3,0.2c-0.6,0-1.2,0-1.8,0c-0.2,0-0.2,0-0.3-0.2c-0.2-0.8-0.4-1.7-0.6-2.5
			c-0.1-0.6-0.3-1.2-0.4-1.8c0-0.1,0-0.1-0.1-0.2c0,0.1,0,0.2,0,0.3c0,1.3,0,2.6,0,4c0,0.1,0,0.1,0,0.2c0,0.3,0,0.3-0.3,0.3
			c-0.7,0-1.4,0-2,0c0,0-0.1,0-0.1,0c-0.1,0-0.1,0-0.1-0.1c0-0.1,0-0.2,0-0.3c0-2.1,0-4.2,0-6.3c0-0.1,0-0.2,0-0.3
			c-0.1,0.1-0.1,0.2-0.1,0.2c-0.4,2.2-0.9,4.3-1.3,6.5c0,0,0,0.1,0,0.1c0,0.1-0.1,0.1-0.2,0.1c-0.1,0-0.1,0-0.2,0
			c-0.7,0-1.5,0-2.2,0c-0.3,0-0.3,0-0.4-0.3c-0.4-1.4-0.7-2.8-1.1-4.3c0-0.1,0-0.2-0.1-0.2c-0.1,0-0.1,0.1-0.1,0.2
			c-0.4,1.5-0.7,2.9-1.1,4.4c0,0,0,0.1,0,0.1c0,0.1-0.1,0.1-0.2,0.1c0,0-0.1,0-0.1,0c-0.8,0-1.6,0-2.3,0c-0.3,0-0.3,0-0.3-0.3
			c-0.5-2.4-1-4.8-1.4-7.3c-0.1-0.6-0.2-1.1-0.3-1.7c0-0.1,0-0.1,0-0.2c0-0.1,0-0.2,0.1-0.2c0.1,0,0.1,0,0.2,0c0.8,0,1.5,0,2.3,0
			c0,0,0,0,0.1,0c0.2,0,0.2,0,0.3,0.2c0.1,0.4,0.1,0.7,0.2,1.1c0.1,0.8,0.3,1.7,0.4,2.5c0,0.1,0,0.1,0,0.2c0.1-0.1,0.1-0.1,0.1-0.2
			c0.3-1.2,0.6-2.3,0.9-3.5c0-0.1,0-0.1,0-0.2c0-0.1,0.1-0.2,0.2-0.2c0.3,0,0.6,0,0.9,0c0.5,0,0.9,0,1.4,0c0.3,0,0.3,0,0.4,0.3
			c0.3,1.1,0.6,2.3,0.8,3.4c0,0.1,0,0.2,0.1,0.3c0.1-0.1,0.1-0.1,0.1-0.2c0.2-1.2,0.4-2.3,0.6-3.5c0-0.3,0.1-0.3,0.3-0.3
			c1.9,0,3.8,0,5.7,0c0.3,0,0.3,0,0.3,0.3c0.3,1.4,0.6,2.7,0.9,4.1c0,0.1,0,0.1,0.1,0.2c0.1-0.2,0.1-0.5,0.2-0.7
			c0.3-1.2,0.5-2.3,0.8-3.5c0,0,0,0,0-0.1c0.1-0.2,0.1-0.3,0.3-0.3c1.1,0,2.2,0,3.2,0c0,0,0.1,0,0.1,0c0.2,0,0.2,0,0.2,0.2
			c0,0.1,0,0.2,0,0.4C262.1,189.3,262.1,189.9,262.2,190.5C262.2,190.5,262.2,190.5,262.2,190.5z"/>
		<path class="st1" d="M270,204.9c-0.1,0-0.1,0-0.1,0c-1.2-0.8-2.6-1.3-4-1.8c-0.2-0.1-0.4-0.1-0.6-0.2c-0.2,0-0.2,0-0.2,0.1
			c-0.1,0.5-0.3,1-0.5,1.5c-0.5,1.6-1.2,3-2.1,4.4c-0.7,1.1-1.5,2.1-2.6,2.9c-0.8,0.6-1.7,1-2.8,1.1c-0.3,0-0.6,0-1-0.1
			c0-0.1,0.1-0.1,0.1-0.1c1-0.2,1.9-0.7,2.7-1.4c1-0.9,1.8-2,2.5-3.2c1-1.7,1.7-3.6,2.2-5.5c0.1-0.2,0-0.2-0.1-0.2
			c-0.8-0.2-1.5-0.3-2.3-0.4c-0.7-0.1-1.3-0.1-2-0.2c-0.3,0-0.5,0-0.8-0.1c-0.6,0-1.2-0.1-1.8-0.1c0,0-0.1,0-0.1,0
			c-0.1,0-0.2,0-0.2,0.1c0,0.2,0,0.4,0,0.5c0,0.6-0.1,1.3-0.1,1.9c-0.1,0.9-0.1,1.8-0.2,2.6c0,0.6-0.1,1.3-0.1,1.9
			c-0.1,0.9-0.1,1.7-0.2,2.6c0,0.1,0,0.3,0,0.4c0,0.1,0,0.2,0,0.2c-0.1,0-0.1,0-0.1-0.1c0-0.5-0.1-0.9-0.1-1.4c0-0.5-0.1-1-0.1-1.5
			c0-0.3,0-0.5-0.1-0.8c-0.1-0.8-0.1-1.5-0.2-2.3c-0.1-0.9-0.1-1.9-0.2-2.8c0-0.5-0.1-0.9-0.2-1.4c-0.1-0.3-0.1-0.3-0.4-0.3
			c-0.2,0-0.4,0-0.5,0c-0.7,0-1.5,0.1-2.2,0.1c-1.1,0.1-2.2,0.2-3.3,0.4c-0.2,0-0.5,0.1-0.7,0.1c-0.2,0-0.2,0.1-0.2,0.3
			c0.2,0.8,0.4,1.5,0.7,2.2c0.3,0.9,0.7,1.7,1.1,2.6c0.5,0.9,1,1.8,1.7,2.6c0.6,0.8,1.4,1.5,2.2,2c0.5,0.3,1,0.5,1.6,0.6
			c0,0,0.1,0,0.1,0c0,0,0,0,0,0c-0.3,0.1-0.7,0.1-1,0.1c-1.3-0.1-2.4-0.7-3.4-1.6c-1-0.9-1.8-2-2.4-3.1c-0.9-1.6-1.5-3.3-2.1-5.1
			c0,0,0,0,0,0c-0.1-0.2-0.1-0.2-0.3-0.2c-1,0.3-1.9,0.6-2.8,1c-0.6,0.3-1.2,0.6-1.8,1c0,0-0.1,0-0.1,0c0-0.1,0-0.1,0-0.1
			c0.2-0.5,0.6-0.9,1-1.2c0.9-0.7,1.9-1.2,3-1.6c1.5-0.6,3.1-0.9,4.6-1.2c0.8-0.1,1.7-0.2,2.5-0.3c0.7-0.1,1.3-0.1,2-0.1
			c0.5,0,1.1,0,1.6,0c0.9,0,1.8,0.1,2.6,0.1c1.2,0.1,2.4,0.2,3.6,0.5c1.5,0.3,3,0.7,4.4,1.3c0.9,0.4,1.7,0.8,2.5,1.5
			c0.3,0.3,0.6,0.6,0.8,1C269.9,204.7,270,204.7,270,204.9C270,204.8,270,204.8,270,204.9z"/>
		<path class="st1" d="M270,180.3c0,0.1,0,0.2-0.1,0.2c-0.3,0.5-0.6,0.9-1.1,1.2c-0.7,0.5-1.4,0.9-2.2,1.2c-1.5,0.6-3.1,1-4.7,1.3
			c-0.9,0.2-1.7,0.3-2.6,0.4c-0.5,0-1,0.1-1.5,0.1c-1,0.1-1.9,0.1-2.9,0.1c-0.5,0-1.1,0-1.6-0.1c-0.5,0-0.9-0.1-1.4-0.1
			c-0.9-0.1-1.8-0.2-2.7-0.4c-1.3-0.2-2.5-0.5-3.7-0.9c-1-0.4-2-0.8-2.9-1.4c-0.4-0.3-0.8-0.6-1.2-1.1c-0.1-0.2-0.3-0.4-0.3-0.6
			c0.1-0.1,0.1,0,0.1,0c0.7,0.5,1.6,0.9,2.4,1.2c0.7,0.3,1.4,0.5,2.1,0.7c0,0,0.1,0,0.1,0c0.2,0,0.2,0,0.3-0.1
			c0-0.1,0.1-0.2,0.1-0.4c0.5-1.5,1-3,1.8-4.4c0.6-1,1.2-2,2-2.9c0.7-0.7,1.4-1.3,2.3-1.7c0.7-0.3,1.4-0.5,2.2-0.5
			c0.2,0,0.3,0,0.5,0.1c0,0.1-0.1,0.1-0.1,0.1c-1,0.2-1.8,0.7-2.6,1.3c-1,0.9-1.8,1.9-2.5,3.1c-1,1.7-1.7,3.6-2.3,5.6c0,0,0,0,0,0.1
			c0,0.2,0,0.2,0.2,0.3c0.4,0.1,0.8,0.2,1.2,0.2c0.8,0.1,1.7,0.2,2.5,0.3c0.5,0,1,0.1,1.6,0.1c0.5,0,1.1,0,1.6,0.1
			c0.2,0,0.3,0,0.3-0.2c0.1-0.4,0.1-0.8,0.2-1.3c0-0.5,0.1-1,0.1-1.5c0-0.5,0.1-1,0.1-1.5c0-0.6,0.1-1.2,0.1-1.7
			c0-0.5,0.1-1,0.1-1.5c0-0.6,0.1-1.1,0.1-1.7c0-0.3,0-0.6,0.1-0.8c0-0.1,0-0.1,0-0.2c0.1,0,0.1,0.1,0.1,0.1c0,0.4,0,0.7,0.1,1.1
			c0,0.7,0.1,1.3,0.1,2c0,0.3,0,0.6,0,0.9c0.1,0.9,0.1,1.8,0.2,2.7c0.1,0.9,0.1,1.7,0.2,2.6c0,0.3,0,0.6,0.1,1c0,0.2,0,0.2,0.2,0.2
			c0.7-0.1,1.5-0.1,2.2-0.1c0.8-0.1,1.7-0.1,2.5-0.2c0.7-0.1,1.5-0.2,2.2-0.4c0.2,0,0.2-0.1,0.1-0.2c-0.4-1.3-0.8-2.6-1.3-3.8
			c-0.4-1-0.9-1.9-1.6-2.8c-0.6-0.9-1.3-1.7-2.2-2.4c-0.7-0.5-1.4-0.9-2.3-1.1c0,0-0.1,0-0.1-0.1c0.2,0,0.3-0.1,0.5-0.1
			c0.8,0,1.5,0.2,2.2,0.5c0.7,0.3,1.2,0.7,1.8,1.2c1,1,1.8,2.1,2.5,3.3c0.8,1.5,1.4,3.1,1.9,4.8c0,0,0,0,0,0.1
			c0.1,0.2,0.1,0.2,0.2,0.1c1.6-0.4,3.2-1,4.6-1.9C269.9,180.3,269.9,180.3,270,180.3z"/>
	</g>
</g>
</svg>
