<?xml version="1.0" encoding="utf-8"?>
<!-- Generator: Adobe Illustrator 23.0.1, SVG Export Plug-In . SVG Version: 6.00 Build 0)  -->
<svg version="1.1" id="Layer_1" xmlns="http://www.w3.org/2000/svg" xmlns:xlink="http://www.w3.org/1999/xlink" x="0px" y="0px"
	 viewBox="0 0 391.6 482.6" style="enable-background:new 0 0 391.6 482.6;" xml:space="preserve">
<style type="text/css">
	.st0{fill:#FFF4C1;}
	.st1{fill:#FCF9DE;}
	.st2{fill:#FCE575;}
	.st3{fill:#FCDA4F;}
	.st4{fill:#DB9C2E;}
	.st5{fill:#FFB74B;}
	.st6{fill:#FFA730;}
	.st7{fill:#FFDF74;}
	.st8{fill:#FFD551;}
	.st9{fill:#FF624B;}
</style>
<title>technology</title>
<path class="st0" d="M288.9,206.3c0-59.8-47.9-108.3-107-108.3s-107,48.5-107,108.3c-0.1,24.9,8.4,49,24,68.4
	c6.1,10.7,28.5,52,29.6,88.5v28.4h106.9v-27.7c1.2-42.4,31.1-91.2,31.1-91.2l0,0C281.1,253.7,289,230.3,288.9,206.3z"/>
<path class="st1" d="M266.7,245.9c-0.7,0-1.5-0.1-2.2-0.4c-3.1-1.2-4.6-4.7-3.4-7.8c14.8-38.7,0.5-82.5-34.4-104.8
	c-2.8-1.8-3.6-5.5-1.9-8.3s5.5-3.6,8.3-1.9c39.7,25.4,56.1,75.2,39.2,119.3C271.4,244.4,269.2,245.9,266.7,245.9z"/>
<path class="st2" d="M164.6,274.7c-37.7-46.9-30.3-115.4,16.6-153.1c10-8.1,21.4-14.3,33.5-18.4c-10.6-3.5-21.7-5.2-32.8-5.2
	c-59.1,0-107,48.5-107,108.3c-0.1,24.9,8.4,49,24,68.4c6.1,10.7,28.5,52,29.6,88.5v28.4h65.6v-28.4
	C193.1,326.6,170.7,285.4,164.6,274.7z"/>
<path class="st3" d="M222.9,280c-1,0-1.9-0.5-2.4-1.2l-19.8-27.4l-16.1,27.1c-0.8,1.4-2.7,1.9-4.1,1.1c-0.5-0.3-0.9-0.8-1.2-1.3
	l-12.6-26.8L143.3,279c-1.1,1.2-3,1.3-4.2,0.2c-1.1-1.1-1.3-2.8-0.3-4.1l26.4-31.1c0.7-0.8,1.7-1.1,2.7-1c1,0.1,1.9,0.8,2.3,1.7
	l12.1,25.9l15.6-26.2c0.5-0.9,1.4-1.4,2.4-1.5c1,0,2,0.4,2.6,1.2l22.5,31.1c1,1.3,0.7,3.2-0.7,4.2C224.1,279.8,223.5,280,222.9,280
	L222.9,280z"/>
<path class="st4" d="M181.9,370.4c-2.2,0-4-1.8-4-4v-58.6l-26.7-5.3c-1.2-0.2-2.2-1-2.8-2.1l-21.5-42.1c-1-2-0.2-4.4,1.7-5.4
	s4.4-0.2,5.4,1.7l20.6,40.4l27.3,5.4l27.2-5.4l20.6-40.4c1-2,3.4-2.8,5.4-1.7s2.8,3.4,1.7,5.4l0,0l-21.5,42.1
	c-0.6,1.1-1.6,1.9-2.8,2.1l-26.7,5.3v58.6C185.9,368.6,184.1,370.4,181.9,370.4C181.9,370.4,181.9,370.4,181.9,370.4z"/>
<path class="st2" d="M0.1,164c0-1.3,0-2.7-0.1-4c0.8-6.2,6-10.8,12.2-10.9h41c6.1,0,11.4,4.2,12.6,10.2c0,1.3,0.1,2.7,0.1,4
	c-0.8,6.2-6,10.8-12.2,10.9h-41C6.7,174.3,1.4,170,0.1,164z"/>
<path class="st2" d="M66.9,46.8c0.9-1,1.8-1.9,2.7-2.9c4.9-3.8,11.9-3.3,16.3,1.1l29,29.4c4.3,4.3,5.1,11.1,1.8,16.3
	c-0.9,1-1.8,1.9-2.7,2.9c-4.9,3.8-11.9,3.4-16.3-1.1l-29-29.3C64.4,58.8,63.7,52,66.9,46.8z"/>
<path class="st2" d="M367.9,163.9c0-1.3,0.1-2.7,0.1-4c-0.8-6.2-6-10.8-12.2-10.9h-41c-6.1,0-11.4,4.2-12.6,10.2
	c0,1.3-0.1,2.7-0.1,4c0.8,6.2,6,10.8,12.2,10.9h41C361.4,174.1,366.6,169.8,367.9,163.9z"/>
<path class="st2" d="M301.1,46.7c-0.9-1-1.8-1.9-2.7-2.9c-4.9-3.8-11.9-3.3-16.3,1.1l-29,29.3c-4.3,4.3-5.1,11.1-1.8,16.3
	c0.9,1,1.8,1.9,2.7,2.9c4.9,3.8,11.9,3.4,16.3-1l29-29.3C303.6,58.6,304.4,51.8,301.1,46.7z"/>
<path class="st2" d="M188.4,0.1c-1.3,0-2.6,0-3.9-0.1c-6.2,0.9-10.8,6.2-10.7,12.4v41.5c-0.1,6.1,4.1,11.4,10.1,12.8
	c1.3,0,2.6,0,3.9,0.1c6.2-0.9,10.8-6.2,10.7-12.4V12.9C198.5,6.8,194.3,1.5,188.4,0.1z"/>
<path class="st5" d="M184.5,480h-1c-27.3,0-49.4-22.1-49.4-49.4l0,0v-17.8h99.7v17.8C233.9,457.9,211.8,480,184.5,480
	C184.5,480,184.5,480,184.5,480z"/>
<path class="st6" d="M166.9,429.5v-16.6h-32.8v16.6c0,27.9,22.3,50.5,49.9,50.5c5.6,0,11.1-1,16.4-2.9
	C180.3,470,166.9,450.9,166.9,429.5z"/>
<path class="st5" d="M224.1,423.5h-80.3c-10.9,0-19.8-8.9-19.8-19.8v-5.6c0-10.9,8.8-19.8,19.7-19.8c0,0,0,0,0,0h80.3
	c10.9,0,19.8,8.9,19.8,19.8v5.6C243.9,414.6,235.1,423.5,224.1,423.5C224.2,423.5,224.1,423.5,224.1,423.5z"/>
<path class="st6" d="M156.9,403.6v-5.4c-0.1-10.9,8.7-19.8,19.6-19.9c0,0,0,0,0,0h-32.8c-10.9,0.1-19.7,9-19.6,19.9v5.4
	c-0.1,10.9,8.7,19.8,19.6,19.9c0,0,0,0,0,0h32.8C165.6,423.4,156.8,414.5,156.9,403.6z"/>
<path class="st5" d="M233.5,385.1h-99c-10.9,0-19.7-8.9-19.7-19.8v-5.6c0-10.9,8.9-19.8,19.8-19.8h99c10.9,0,19.8,8.8,19.8,19.8v5.6
	C253.3,376.2,244.5,385.1,233.5,385.1C233.5,385.1,233.5,385.1,233.5,385.1z"/>
<path class="st6" d="M147.5,365.2v-5.4c-0.1-10.9,8.7-19.8,19.6-19.9c0,0,0,0,0,0h-32.8c-10.9,0.1-19.7,9-19.6,19.9c0,0,0,0,0,0v5.4
	c-0.1,10.9,8.7,19.8,19.6,19.9h32.8C156.3,385,147.5,376.1,147.5,365.2z"/>
<ellipse class="st3" cx="305.7" cy="396.6" rx="85.9" ry="86"/>
<path class="st5" d="M285,457.4c-33.6-33.6-33.6-88,0-121.6c11.2-11.2,25.3-19.1,40.7-22.8c-46.2-11.1-92.6,17.4-103.7,63.6
	s17.4,92.6,63.6,103.7c13.2,3.2,26.9,3.2,40.1,0C310.3,476.5,296.2,468.6,285,457.4z"/>
<path class="st7" d="M305.7,472.6c-20.1,0-39.5-8-53.6-22.3c-29.6-29.7-29.6-77.8,0-107.5c29.6-29.6,77.5-29.7,107.2-0.1
	c0,0,0.1,0.1,0.1,0.1c29.6,29.7,29.6,77.8,0,107.5C345.2,464.6,325.9,472.6,305.7,472.6z"/>
<path class="st8" d="M305.6,320.6c-20.1,0-39.3,8-53.5,22.3c-29.6,29.7-29.6,77.8,0,107.5c14.2,14.3,33.4,22.3,53.5,22.3
	c-42-22.2-58-74.1-35.9-116.1C277.8,341.2,290.3,328.6,305.6,320.6L305.6,320.6z"/>
<path class="st0" d="M305.6,349c-2.2,0-4-1.8-4-4v-16c0-2.2,1.8-4,4-4s4,1.8,4,4v16C309.6,347.2,307.8,349,305.6,349z"/>
<path class="st0" d="M305.6,469c-2.2,0-4-1.8-4-4v-16c0-2.2,1.8-4,4-4s4,1.8,4,4v16C309.6,467.2,307.8,469,305.6,469z"/>
<path class="st0" d="M373.6,401h-16c-2.2,0-4-1.8-4-4s1.8-4,4-4h16c2.2,0,4,1.8,4,4S375.8,401,373.6,401z"/>
<path class="st0" d="M253.6,401h-16c-2.2,0-4-1.8-4-4s1.8-4,4-4h16c2.2,0,4,1.8,4,4S255.8,401,253.6,401z"/>
<path class="st0" d="M353.7,449.1c-1.1,0-2.1-0.4-2.8-1.2l-11.3-11.3c-1.5-1.6-1.4-4.2,0.3-5.6c1.5-1.4,3.8-1.4,5.4,0l11.3,11.3
	c1.6,1.6,1.6,4.1,0,5.7C355.8,448.7,354.7,449.1,353.7,449.1L353.7,449.1z"/>
<path class="st0" d="M268.8,364.3c-1.1,0-2.1-0.4-2.8-1.2l-11.3-11.3c-1.6-1.5-1.7-4.1-0.1-5.7c1.5-1.6,4.1-1.7,5.7-0.1
	c0,0,0.1,0.1,0.1,0.1l11.3,11.3c1.6,1.6,1.6,4.1,0,5.7C270.9,363.9,269.9,364.3,268.8,364.3z"/>
<path class="st0" d="M257.5,449.1c-2.2,0-4-1.8-4-4c0-1.1,0.4-2.1,1.2-2.8L266,431c1.6-1.5,4.1-1.5,5.7,0.1c1.5,1.5,1.5,4,0,5.5
	L260.3,448C259.6,448.7,258.6,449.1,257.5,449.1z"/>
<path class="st0" d="M342.4,364.3c-2.2,0-4-1.8-4-4c0-1.1,0.4-2.1,1.2-2.8l11.3-11.3c1.5-1.6,4.1-1.7,5.7-0.1
	c1.6,1.5,1.7,4.1,0.1,5.7c0,0-0.1,0.1-0.1,0.1l-11.3,11.3C344.4,363.8,343.4,364.3,342.4,364.3z"/>
<path class="st9" d="M338.7,400.6h-33c-2.2,0-4-1.8-4-4l-0.1-36.3l0.1-11.4c0-2.2,1.8-4,4.1-3.9s4,1.8,3.9,4.1l-0.1,11.3l0.1,32.3
	h29c2.2,0,4,1.8,4,4S340.9,400.6,338.7,400.6L338.7,400.6z"/>
<path class="st2" d="M253.6,401h-16c-2.2,0-4-1.8-4-4s1.8-4,4-4h16c2.2,0,4,1.8,4,4S255.8,401,253.6,401z"/>
<path class="st2" d="M257.5,449.1c1.1,0,2.1-0.4,2.8-1.2l10.1-10.1c-1.3-2.5-2.5-4.9-3.6-7.5c-0.3,0.2-0.5,0.4-0.8,0.6l-11.3,11.3
	c-1.6,1.6-1.6,4.1,0,5.7C255.4,448.7,256.4,449.1,257.5,449.1z"/>
<path class="st2" d="M266,363.1c0.1,0.1,0.3,0.3,0.5,0.4c1.1-2.6,2.3-5.1,3.6-7.6l-9.8-9.8c-1.5-1.6-4.1-1.7-5.7-0.1
	c-1.6,1.5-1.7,4.1-0.1,5.7c0,0,0.1,0.1,0.1,0.1L266,363.1z"/>
<circle class="st2" cx="190.5" cy="149.9" r="18"/>
<path class="st3" d="M16.1,164c0-1.3,0-2.7-0.1-4c0.8-6.2,6-10.8,12.2-10.9h-16c-6.2,0-11.5,4.7-12.2,10.9c0.1,1.3,0.1,2.6,0.1,4
	c1.3,6,6.6,10.2,12.7,10.2h16C22.7,174.3,17.4,170,16.1,164z"/>
<path class="st3" d="M113.7,92.4l-29-29.3c-4.3-4.3-5.1-11.1-1.8-16.3c0.8-0.8,1.5-1.6,2.2-2.4c-4.4-3.9-10.9-4.1-15.6-0.5
	c-0.9,1-1.8,1.9-2.7,2.9c-3.3,5.2-2.5,11.9,1.8,16.3l29,29.3c4.4,4.4,11.3,4.9,16.3,1.1l0.4-0.5C114.2,92.8,113.9,92.7,113.7,92.4z"
	/>
<path class="st3" d="M318,163.2c0.1-1.3,0.1-2.6,0.1-4c1.3-6,6.6-10.2,12.7-10.2h-16c-6.1,0-11.4,4.2-12.6,10.2c0,1.3-0.1,2.7-0.1,4
	c0.8,6.2,6,10.8,12.2,10.9h16C324,174,318.8,169.4,318,163.2z"/>
<path class="st3" d="M267.3,90.4c-3.3-5.2-2.5-11.9,1.8-16.3l29-29.3c0.2-0.2,0.5-0.4,0.7-0.6c-0.1-0.2-0.3-0.3-0.5-0.5
	c-4.9-3.8-11.9-3.3-16.2,1.1l-29,29.3c-4.3,4.3-5.1,11.1-1.8,16.3c0.9,1,1.8,1.9,2.7,2.9c4.6,3.6,11.2,3.4,15.5-0.5
	C268.8,92,268.1,91.2,267.3,90.4z"/>
<path class="st3" d="M189.7,53.9V12.4c0-3.6,1.6-7.1,4.3-9.4c-1.6-1.4-3.5-2.4-5.6-2.9c-1.3,0-2.6,0-3.9-0.1
	c-6.2,0.9-10.8,6.2-10.7,12.4v41.5c-0.1,6.1,4.1,11.4,10.1,12.8c1.3,0,2.6,0,3.9,0.1c2.4-0.3,4.6-1.4,6.4-3
	C191.4,61.3,189.7,57.7,189.7,53.9z"/>
</svg>
